<svg xmlns="http://www.w3.org/2000/svg" width="566.953" height="106.186" viewBox="0 0 566.953 106.186">
  <g id="tekmountain-logo-horizontal-color" transform="translate(-91.222 -221.507)">
    <path id="Path_2" data-name="Path 2" d="M229.554,245.253v10.2H213.308v36.791H201.762V255.457H185.514v-10.2Z" transform="translate(30.292 7.629)" fill="#01385a"/>
    <path id="Path_3" data-name="Path 3" d="M243.919,253.789c8.258,0,11.683,3.357,11.683,11.681v7.99H227.538v2.953c0,3.558,1.142,4.632,4.7,4.632h9.13c2.754,0,3.76-1.007,3.76-3.759v-.939H255.6v3.088c0,6.982-3.156,10.071-10.071,10.071H228.344c-8.258,0-11.681-3.357-11.681-11.683V265.47c0-8.324,3.423-11.681,11.681-11.681ZM227.538,266.88h17.59v-.671c0-3.558-1.142-4.632-4.7-4.632h-8.191c-3.558,0-4.7,1.074-4.7,4.632Z" transform="translate(40.299 10.371)" fill="#01385a"/>
    <path id="Path_4" data-name="Path 4" d="M325.8,245.253h9.668v46.995H324.721V263.916L311.63,284.057h-6.042L292.5,263.916v28.332H281.755V245.253h10.138l16.985,26.787Z" transform="translate(61.211 7.629)" fill="#01385a"/>
    <path id="Path_5" data-name="Path 5" d="M336.983,289.505c-8.257,0-11.68-3.357-11.68-11.683V265.47c0-8.324,3.423-11.681,11.68-11.681H353.23c8.257,0,11.681,3.357,11.681,11.681v12.352c0,8.325-3.425,11.683-11.681,11.683Zm12.354-8.728c3.558,0,4.7-1.074,4.7-4.632v-9c0-3.558-1.14-4.632-4.7-4.632h-8.459c-3.559,0-4.7,1.074-4.7,4.632v9c0,3.558,1.14,4.632,4.7,4.632Z" transform="translate(75.201 10.371)" fill="#01385a"/>
    <path id="Path_6" data-name="Path 6" d="M396.861,253.789v35.716h-9l-1.007-4.5a19.316,19.316,0,0,1-5.975,3.626,24.1,24.1,0,0,1-7.585.873H369.6c-8.257,0-11.68-3.357-11.68-11.683V253.789h10.941v22.155c0,3.558,1.074,4.632,4.634,4.632h3.423a11.208,11.208,0,0,0,6.982-1.948l2.081-1.611V253.789Z" transform="translate(85.681 10.371)" fill="#01385a"/>
    <path id="Path_7" data-name="Path 7" d="M416.94,253.789c8.257,0,11.681,3.357,11.681,11.681v24.035H417.677V267.35c0-3.558-1.074-4.632-4.631-4.632h-3.425a11.21,11.21,0,0,0-6.982,1.948l-2.082,1.611v23.229H389.682V253.789h9l1.008,4.5a21.194,21.194,0,0,1,5.975-3.693,26.7,26.7,0,0,1,7.585-.806Z" transform="translate(95.884 10.371)" fill="#01385a"/>
    <path id="Path_8" data-name="Path 8" d="M452.605,264.274H438.91v14.7c0,2.752,1.007,3.759,3.759,3.759h9.936v8.728H438.1c-6.913,0-10.068-3.089-10.068-10.071v-17.12h-6.848v-8.526h6.848l2.214-8.056h8.661v8.056h13.695Z" transform="translate(106.005 8.412)" fill="#01385a"/>
    <path id="Path_9" data-name="Path 9" d="M473.494,253.789c8.258,0,11.681,3.357,11.681,11.681v24.035h-9l-1.007-4.3a16.576,16.576,0,0,1-5.506,3.558,26.247,26.247,0,0,1-7.184.739H454.7q-8.459,0-8.459-8.46v-3.894q0-8.459,8.459-8.459h19.6v-2.551c0-3.557-1.141-4.631-4.7-4.631h-7.519c-2.752,0-3.76,1.007-3.76,3.759v1.007H447.849V263.86c0-6.983,3.157-10.071,10.071-10.071Zm-7.452,28.533a9.647,9.647,0,0,0,5.909-1.745l2.349-1.813v-4.029H460.268c-2.415,0-3.155.806-3.155,3.155v1.276c0,2.417.74,3.155,3.155,3.155Z" transform="translate(114.053 10.371)" fill="#01385a"/>
    <path id="Path_10" data-name="Path 10" d="M479.012,253.174v-7.921h11.077v7.921Zm0,39.074V256.531h11.077v35.716Z" transform="translate(124.582 7.629)" fill="#01385a"/>
    <path id="Path_11" data-name="Path 11" d="M518.108,253.789c8.258,0,11.681,3.357,11.681,11.681v24.035H518.847V267.35c0-3.558-1.074-4.632-4.632-4.632h-3.423a11.207,11.207,0,0,0-6.982,1.948l-2.082,1.611v23.229H490.852V253.789h9l1.007,4.5a21.231,21.231,0,0,1,5.975-3.693,26.711,26.711,0,0,1,7.587-.806Z" transform="translate(128.386 10.371)" fill="#01385a"/>
    <path id="Path_12" data-name="Path 12" d="M259.856,245.253v21.433l-10.709,10.2-.167-20.352Z" transform="translate(50.682 7.629)" fill="#01385a"/>
    <path id="Path_13" data-name="Path 13" d="M271.739,271.446l18.126-17.656H275.3l-26.317,24.4V289.5h10.875v-6.53l5-4.864L275.7,289.5h14.636Z" transform="translate(50.682 10.371)" fill="#01385a"/>
    <path id="Path_14" data-name="Path 14" d="M181.462,286.463H138.516l-4.039,7.489h41.071a45.4,45.4,0,0,1-65.286.036h15.656l9.816-18.2V259.948l-14.305,26.515H95.662a53.12,53.12,0,0,0,94.452,0Z" transform="translate(1.426 12.35)" fill="#40bbec"/>
    <path id="Path_15" data-name="Path 15" d="M144.314,221.507a53.091,53.091,0,0,0-50.378,69.817h24.471l18.753-34.729,12.741,23.6-6.01,11.134h8.539l9.64-17.83,9.484,17.83h23.139a53.064,53.064,0,0,0-50.378-69.817ZM176.186,283.8l-14.116-26.144-7.892,14.616L137.16,240.755,113.919,283.8H99.7a45.568,45.568,0,1,1,89.234,0Z" transform="translate(0 0)" fill="#01385a"/>
  </g>
</svg>
