<svg xmlns="http://www.w3.org/2000/svg" width="106.185" height="106.186" viewBox="0 0 106.185 106.186">
  <g id="tekmountain-logo-mark" transform="translate(-91.222 -221.507)">
    <path id="Path_14" data-name="Path 14" d="M181.462,286.463H138.516l-4.039,7.489h41.071a45.4,45.4,0,0,1-65.286.036h15.656l9.816-18.2V259.948l-14.305,26.515H95.662a53.12,53.12,0,0,0,94.452,0Z" transform="translate(1.426 12.35)" fill="#40bbec"/>
    <path id="Path_15" data-name="Path 15" d="M144.314,221.507a53.091,53.091,0,0,0-50.378,69.817h24.471l18.753-34.729,12.741,23.6-6.01,11.134h8.539l9.64-17.83,9.484,17.83h23.139a53.064,53.064,0,0,0-50.378-69.817ZM176.186,283.8l-14.116-26.144-7.892,14.616L137.16,240.755,113.919,283.8H99.7a45.568,45.568,0,1,1,89.234,0Z" transform="translate(0 0)" fill="#01385a"/>
  </g>
</svg>
