<svg xmlns="http://www.w3.org/2000/svg" xmlns:xlink="http://www.w3.org/1999/xlink" width="185.012" height="163.665" viewBox="0 0 185.012 163.665">
  <defs>
    <clipPath id="clip-path">
      <path id="Path_18" data-name="Path 18" d="M0,108.369H185.011V-54.96H0Z" transform="translate(0 54.96)" fill="#7b7569"/>
    </clipPath>
  </defs>
  <g id="ttpl-component-icon-self-discovery" transform="translate(-9886.242 -1353)">
    <g id="ttpl-component-icon-self-discovery-2" data-name="ttpl-component-icon-self-discovery" transform="translate(9886.242 1353.335)">
      <g id="Group_54" data-name="Group 54" transform="translate(0 0.001)" clip-path="url(#clip-path)">
        <g id="Group_52" data-name="Group 52" transform="translate(58.043 65.566)">
          <path id="Path_16" data-name="Path 16" d="M45.1,42.02H-21.077a1.8,1.8,0,0,1-1.795-1.795,1.8,1.8,0,0,1,1.795-1.8H45.1a6.307,6.307,0,0,0,4.342-1.721l50.52-47.572A1.735,1.735,0,0,0,100.5-12.2a1.665,1.665,0,0,0-.624-1.245C92.514-19.326,85.245-19.181,77-13,65.907-4.67,49.595,7.663,49.595,7.663L47.429,4.8S63.747-7.537,74.849-15.87c9.489-7.123,18.663-7.251,27.272-.386a5.267,5.267,0,0,1,1.97,3.9,5.322,5.322,0,0,1-1.667,4.1L51.9,39.322a9.9,9.9,0,0,1-6.805,2.7" transform="translate(22.872 21.311)" fill="#7b7569"/>
        </g>
        <g id="Group_53" data-name="Group 53" transform="translate(28.398 77.707)">
          <path id="Path_17" data-name="Path 17" d="M65.553,19.258h-40.6a1.8,1.8,0,0,1,0-3.593h40.6a.955.955,0,0,0,.716-.324,1.091,1.091,0,0,0,.276-.844C65.345,2.557,56.79,1.627,54.2,1.627H33.518a1.8,1.8,0,0,1-1-.3c-9.617-6.458-15.525-7.5-25.953-7.5-13.144,0-23.409,6.452-36.612,23.014a1.792,1.792,0,0,1-2.523.285,1.8,1.8,0,0,1-.285-2.523C-19.056-2.706-7.636-9.767,6.566-9.767c10.817,0,17.424,1.135,27.495,7.8H54.2c2.389,0,14.38.776,15.923,16.1a4.688,4.688,0,0,1-1.183,3.614,4.575,4.575,0,0,1-3.382,1.507" transform="translate(33.246 9.767)" fill="#7b7569"/>
        </g>
      </g>
      <g id="Group_78" data-name="Group 78" transform="translate(5.387 0)">
        <g id="Group_60" data-name="Group 60" transform="translate(0 91.708)">
          <path id="Path_24" data-name="Path 24" d="M31.929,43.947A1.8,1.8,0,0,1,30.66,40.88L45.706,25.834,1.92-17.952-13.126-2.906a1.8,1.8,0,0,1-2.541,0,1.794,1.794,0,0,1,0-2.538L.651-21.762a1.8,1.8,0,0,1,2.541,0L49.516,24.565a1.794,1.794,0,0,1,0,2.538L33.2,43.421a1.786,1.786,0,0,1-1.269.526" transform="translate(16.193 22.288)" fill="#7b7569"/>
        </g>
        <g id="Group_61" data-name="Group 61" transform="translate(16.952 114.554)">
          <path id="Path_25" data-name="Path 25" d="M.671.67a3.45,3.45,0,1,0,4.88,0,3.447,3.447,0,0,0-4.88,0" transform="translate(0.341 0.34)" fill="#7b7569"/>
        </g>
        <g id="Group_62" data-name="Group 62" transform="translate(62.499 0)">
          <path id="Path_26" data-name="Path 26" d="M28.929,48.9a4.871,4.871,0,0,1-3.456-1.429L-8.022,13.979a22.732,22.732,0,0,1-6.6-17.513A22.812,22.812,0,0,1-5.766-20.119a22.715,22.715,0,0,1,26.859-.553,22.779,22.779,0,0,1,7.837,9.7,22.8,22.8,0,0,1,7.837-9.7,22.7,22.7,0,0,1,26.859.553A22.825,22.825,0,0,1,72.487-3.534,22.724,22.724,0,0,1,65.88,13.979L32.385,47.474A4.866,4.866,0,0,1,28.929,48.9M8.055-21.213A19.013,19.013,0,0,0-3.57-17.278,18.991,18.991,0,0,0-11.044-3.305,19.136,19.136,0,0,0-5.481,11.438L28.014,44.933a1.3,1.3,0,0,0,1.834,0L63.342,11.438A19.134,19.134,0,0,0,68.9-3.305a19,19,0,0,0-7.471-13.973,19.089,19.089,0,0,0-22.58-.467A19.123,19.123,0,0,0,31.684-8.1a2.911,2.911,0,0,1-2.752,2.03h0A2.914,2.914,0,0,1,26.174-8.1a19.123,19.123,0,0,0-7.168-9.646A18.849,18.849,0,0,0,8.055-21.213" transform="translate(14.672 24.801)" fill="#7b7569"/>
        </g>
      </g>
    </g>
    <rect id="Rectangle_94" data-name="Rectangle 94" width="179" height="158" transform="translate(9892 1353)" fill="none"/>
  </g>
</svg>
