<svg xmlns="http://www.w3.org/2000/svg" xmlns:xlink="http://www.w3.org/1999/xlink" width="179" height="158.712" viewBox="0 0 179 158.712">
  <defs>
    <clipPath id="clip-path">
      <path id="Path_117" data-name="Path 117" d="M0,111.271H134.446V-46.441H0Z" transform="translate(0 46.441)" fill="#7b7569"/>
    </clipPath>
  </defs>
  <g id="ttpl-component-icon-steady-state-analysis" transform="translate(-10389 -1568.288)">
    <g id="ttpl-component-icon-steady-state-analysis-2" data-name="ttpl-component-icon-steady-state-analysis" transform="translate(10411 1614.729)">
      <g id="Group_140" data-name="Group 140" transform="translate(0 -46.441)" clip-path="url(#clip-path)">
        <g id="Group_137" data-name="Group 137" transform="translate(65.731 30.146)">
          <path id="Path_114" data-name="Path 114" d="M1.451,90A2.052,2.052,0,0,1,.418,86.174,127.612,127.612,0,0,0,64-23.865V-35.509a2.055,2.055,0,0,1,2.055-2.055,2.054,2.054,0,0,1,2.051,2.055v11.645A131.738,131.738,0,0,1,2.476,89.727,2.049,2.049,0,0,1,1.451,90" transform="translate(0.605 37.564)" fill="#7b7569"/>
        </g>
        <g id="Group_138" data-name="Group 138" transform="translate(0.001 -0.001)">
          <path id="Path_115" data-name="Path 115" d="M43.18,104.591a2.059,2.059,0,0,1-1.029-.275A120.774,120.774,0,0,1-18.022.192V-16.383a2.049,2.049,0,0,1,2.051-2.051c24,0,46.042-9.369,57.517-24.454a2.128,2.128,0,0,1,3.267,0C56.288-27.8,78.328-18.435,102.331-18.435a2.049,2.049,0,0,1,2.051,2.051V.192A120.774,120.774,0,0,1,44.209,104.316a2.059,2.059,0,0,1-1.029.275M-13.92-14.353V.192a116.647,116.647,0,0,0,57.1,99.967A116.647,116.647,0,0,0,100.279.192V-14.353c-23.385-.5-44.854-9.553-57.1-24.016C30.934-23.906,9.465-14.855-13.92-14.353" transform="translate(18.022 43.653)" fill="#7b7569"/>
        </g>
        <g id="Group_139" data-name="Group 139" transform="translate(27.751 41.346)">
          <path id="Path_116" data-name="Path 116" d="M21.671,47.555a2.054,2.054,0,0,1-1.613-.784L-8.607,10.3a2.052,2.052,0,0,1,.346-2.88,2.052,2.052,0,0,1,2.883.343L21.576,42.06,64.3-18.972a2.046,2.046,0,0,1,2.856-.5,2.05,2.05,0,0,1,.506,2.856l-44.307,63.3a2.044,2.044,0,0,1-1.623.876h-.058" transform="translate(9.045 19.848)" fill="#7b7569"/>
        </g>
      </g>
    </g>
    <rect id="Rectangle_99" data-name="Rectangle 99" width="179" height="158" transform="translate(10389 1569)" fill="none"/>
  </g>
</svg>
