<svg xmlns="http://www.w3.org/2000/svg" width="179" height="158" viewBox="0 0 179 158">
  <g id="ttpl-component-icon-professional-discovery" transform="translate(-10151 -1353)">
    <g id="ttpl-component-icon-professional-discovery-2" data-name="ttpl-component-icon-professional-discovery" transform="translate(9872.913 1255.038)">
      <path id="Path_124" data-name="Path 124" d="M444.8,178.127a6.284,6.284,0,0,0-.7-.7l-37.181-28.989a4.516,4.516,0,0,0-2.808-1.008h0c-2.616,0-5.047,2.389-5.047,5.8v13.24c-30.3,0-57.008,19.069-57.008,59.144v22.24H346v-22.24c0-17.576,5.493-32,15.887-41.708,9.3-8.694,22.506-13.481,37.168-13.481h3.952v-17.2c0-1.227.7-1.842,1.093-1.842l0,0a.681.681,0,0,1,.376.17l37.181,28.989a2.384,2.384,0,0,1,0,3.342L404.48,212.875a.647.647,0,0,1-.376.17c-.4,0-1.093-.615-1.093-1.84v-17.1h-3.952c-18.941,0-29.372,11.187-29.372,31.5v22.24h3.955v-22.24c0-20.034,10.265-27.549,25.415-27.549v13.148c0,3.408,2.432,5.8,5.047,5.8A4.513,4.513,0,0,0,406.91,216l37.182-28.99A6.3,6.3,0,0,0,444.8,178.127Z" transform="translate(10.3 8.114)" fill="#7b7569"/>
      <path id="Path_125" data-name="Path 125" d="M326.93,170.419c14.563,0,27.678,4.726,36.973,13.307a34.2,34.2,0,0,1,2.676-2.914c-10.443-9.64-24.6-14.349-39.647-14.349v-13.24c0-3.41-2.432-5.8-5.046-5.8h0a4.516,4.516,0,0,0-2.808,1.008l-37.18,28.989a6.293,6.293,0,0,0,0,9.583L319.076,216A4.516,4.516,0,0,0,321.884,217c2.615,0,5.046-2.389,5.046-5.8V198.059c11.993,0,20.917,4.715,24.12,16.613.326-2.118.77-4.565,1.367-7.134-4.621-8.754-13.272-13.432-25.488-13.432h-3.952v17.1c0,1.225-.7,1.84-1.093,1.84a.644.644,0,0,1-.376-.17l-37.182-28.989a2.384,2.384,0,0,1,0-3.342l37.182-28.989a.674.674,0,0,1,.376-.17l0,0c.391,0,1.092.615,1.092,1.842v17.2Z" transform="translate(0 8.114)" fill="#7b7569"/>
      <path id="Path_126" data-name="Path 126" d="M365.747,100.507a6.03,6.03,0,0,0-4.791-2.209v0a6.041,6.041,0,0,0-4.792,2.209l-28.989,37.178c-2.605,3.342.147,7.855,4.789,7.855h12.63v31.95c1.165.488,2.5,1.094,3.953,1.84V141.589H331.963a1.931,1.931,0,0,1-1.778-.854c-.1-.2-.1-.344.107-.615l28.991-37.182a2.393,2.393,0,0,1,3.345,0l28.988,37.178c.213.271.2.418.108.615a1.935,1.935,0,0,1-1.779.854H372.238v37.847c1.669-.866,3.045-1.483,3.951-1.863V145.544h13.757c4.643,0,7.4-4.513,4.791-7.855Z" transform="translate(7.677)" fill="#7b7569"/>
    </g>
    <rect id="Rectangle_95" data-name="Rectangle 95" width="179" height="158" transform="translate(10151 1353)" fill="none"/>
  </g>
</svg>
