<svg xmlns="http://www.w3.org/2000/svg" width="180.249" height="158" viewBox="0 0 180.249 158">
  <g id="ttpl-component-icon-transition-analysis" transform="translate(-10173 -1571)">
    <g id="ttpl-component-icon-transition-analysis-2" data-name="ttpl-component-icon-transition-analysis" transform="translate(10025.156 1134.612)">
      <path id="Path_145" data-name="Path 145" d="M259.708,572.163c-.619,0-1.23-.026-1.843-.047v17.96H152.529V440.609H257.864v20.9c.613-.021,1.225-.048,1.843-.048s1.228.027,1.841.048V438.763a1.841,1.841,0,0,0-1.841-1.841H150.689a1.844,1.844,0,0,0-1.844,1.841V591.92a1.843,1.843,0,0,0,1.844,1.841H259.708a1.841,1.841,0,0,0,1.841-1.841v-19.8C260.936,572.137,260.325,572.163,259.708,572.163Z" fill="#7b7569"/>
      <path id="Path_105" data-name="Path 105" d="M260.372,539.776a1.84,1.84,0,0,1-1.841-1.84,36.833,36.833,0,0,1,2.786-14.144,36.349,36.349,0,0,1,7.6-11.56,35.4,35.4,0,0,1,11.3-7.8,1.842,1.842,0,0,1,1.465,3.379h0a31.758,31.758,0,0,0-10.124,7,32.622,32.622,0,0,0-6.835,10.391,33.2,33.2,0,0,0-2.509,12.739,1.841,1.841,0,0,1-1.841,1.84" transform="translate(-34.3 -21.063)" fill="#7b7569"/>
      <path id="Path_107" data-name="Path 107" d="M378.291,632.044a11.067,11.067,0,0,1-7.97-3.381l-24.469-25.078a1.842,1.842,0,1,1,2.634-2.574l24.47,25.079a7.39,7.39,0,0,0,5.333,2.269h0a7.377,7.377,0,0,0,5.325-2.269,7.944,7.944,0,0,0,0-11.054l-24.794-25.409a1.841,1.841,0,0,1,.029-2.6h0a1.84,1.84,0,0,1,2.6.032h0l24.8,25.406a11.639,11.639,0,0,1,0,16.2A11.031,11.031,0,0,1,378.291,632.044Z" transform="translate(-61.443 -46.775)" fill="#7b7569"/>
      <path id="Path_108" data-name="Path 108" d="M288.445,579.783c-26.3,0-47.7-21.913-47.7-48.838s21.4-48.845,47.7-48.845,47.7,21.913,47.7,48.843-21.4,48.838-47.7,48.838m0-94c-24.271,0-44.016,20.261-44.016,45.161S264.175,576.1,288.446,576.1s44.019-20.261,44.019-45.155-19.749-45.157-44.021-45.157" transform="translate(-28.738 -14.128)" fill="#7b7569"/>
      <path id="Path_109" data-name="Path 109" d="M279.641,581.735a1.841,1.841,0,0,1-1.841-1.841h0V567.984a1.841,1.841,0,1,1,3.681,0v11.911a1.841,1.841,0,0,1-1.841,1.841" transform="translate(-40.326 -40.408)" fill="#7b7569"/>
      <path id="Path_110" data-name="Path 110" d="M299.423,573.751a1.84,1.84,0,0,1-1.841-1.839v-29.46a1.841,1.841,0,1,1,3.681,0v29.46a1.841,1.841,0,0,1-1.841,1.841h0" transform="translate(-46.512 -32.424)" fill="#7b7569"/>
      <path id="Path_111" data-name="Path 111" d="M319.2,575.987a1.841,1.841,0,0,1-1.841-1.841V549.6a1.841,1.841,0,0,1,3.681,0v24.548a1.841,1.841,0,0,1-1.841,1.841h0" transform="translate(-52.698 -34.66)" fill="#7b7569"/>
      <path id="Path_112" data-name="Path 112" d="M338.985,567.677a1.841,1.841,0,0,1-1.841-1.841h0V523.025a1.841,1.841,0,0,1,3.681,0v42.812a1.841,1.841,0,0,1-1.841,1.841h0" transform="translate(-58.884 -26.35)" fill="#7b7569"/>
      <path id="Path_146" data-name="Path 146" d="M187.481,477.748h58.45a1.842,1.842,0,0,0,0-3.685H187.478a1.842,1.842,0,0,0,0,3.685Z" transform="translate(-11.506 -11.615)" fill="#7b7569"/>
      <path id="Path_147" data-name="Path 147" d="M187.481,514.887h34.748c.585-1.256,1.222-2.482,1.895-3.685H187.481a1.842,1.842,0,0,0,0,3.685Z" transform="translate(-11.506 -23.228)" fill="#7b7569"/>
      <path id="Path_148" data-name="Path 148" d="M245.931,622.622H187.478a1.842,1.842,0,0,0,0,3.685h58.45a1.842,1.842,0,0,0,0-3.685Z" transform="translate(-11.506 -58.071)" fill="#7b7569"/>
      <path id="Path_149" data-name="Path 149" d="M187.481,589.167h36.644c-.673-1.2-1.31-2.427-1.9-3.685H187.481a1.842,1.842,0,0,0,0,3.685Z" transform="translate(-11.506 -46.457)" fill="#7b7569"/>
      <path id="Path_150" data-name="Path 150" d="M187.481,552.026h29.57c-.02-.613-.045-1.225-.045-1.843s.025-1.229.045-1.842h-29.57a1.842,1.842,0,0,0,0,3.685Z" transform="translate(-11.506 -34.842)" fill="#7b7569"/>
    </g>
    <rect id="Rectangle_98" data-name="Rectangle 98" width="179" height="158" transform="translate(10173 1571)" fill="none"/>
  </g>
</svg>
