<svg xmlns="http://www.w3.org/2000/svg" width="179" height="158" viewBox="0 0 179 158">
  <g id="ttpl-component-icon-gap-analysis" transform="translate(-10395 -1355)">
    <g id="Group_178" data-name="Group 178">
      <path id="Path_46" data-name="Path 46" d="M237.314,337.477a15.454,15.454,0,1,1,15.451-15.457v0a15.472,15.472,0,0,1-15.453,15.453m0-27.206a11.751,11.751,0,1,0,11.751,11.753,11.751,11.751,0,0,0-11.751-11.753" transform="translate(10190.631 1050.338)" fill="#7b7569"/>
      <path id="Path_47" data-name="Path 47" d="M261.151,398.7h-3.705v-22.41a9.19,9.19,0,0,0-9.179-9.182H213.255a9.193,9.193,0,0,0-9.182,9.182V398.7h-3.7v-22.41A12.9,12.9,0,0,1,213.255,363.4h35.012a12.9,12.9,0,0,1,12.884,12.884Z" transform="translate(10197.183 1033.004)" fill="#7b7569"/>
      <path id="Path_54" data-name="Path 54" d="M401.456,337.477a15.454,15.454,0,1,1,15.451-15.457v0a15.472,15.472,0,0,1-15.453,15.453m0-27.206a11.751,11.751,0,1,0,11.752,11.753,11.751,11.751,0,0,0-11.752-11.753" transform="translate(10140.568 1050.338)" fill="#7b7569"/>
      <path id="Path_55" data-name="Path 55" d="M425.293,398.7h-3.705v-22.41a9.189,9.189,0,0,0-9.179-9.182H377.394a9.189,9.189,0,0,0-9.176,9.182V398.7h-3.705v-22.41A12.9,12.9,0,0,1,377.394,363.4h35.015a12.9,12.9,0,0,1,12.884,12.884Z" transform="translate(10147.122 1033.004)" fill="#7b7569"/>
      <path id="Path_62" data-name="Path 62" d="M319.712,454.115a15.454,15.454,0,1,1,15.454-15.455v0a15.471,15.471,0,0,1-15.454,15.453m0-27.206a11.751,11.751,0,1,0,11.751,11.753,11.751,11.751,0,0,0-11.751-11.753" transform="translate(10165.499 1014.765)" fill="#7b7569"/>
      <path id="Path_63" data-name="Path 63" d="M343.549,515.335h-3.705v-22.41a9.189,9.189,0,0,0-9.179-9.182H295.651a9.194,9.194,0,0,0-9.179,9.182v22.41h-3.7v-22.41a12.9,12.9,0,0,1,12.881-12.884h35.015a12.9,12.9,0,0,1,12.884,12.884Z" transform="translate(10172.053 997.43)" fill="#7b7569"/>
      <path id="Path_134" data-name="Path 134" d="M225.982,392.749v-2.1a1.849,1.849,0,0,0-1.851-1.847h0a1.848,1.848,0,0,0-1.847,1.851v2.1h0v13.7h3.705V392.749Z" transform="translate(10190.502 1025.259)" fill="#7b7569"/>
      <path id="Path_135" data-name="Path 135" d="M264.286,392.749v-2.1a1.849,1.849,0,0,0-1.851-1.847h0a1.849,1.849,0,0,0-1.847,1.851v2.1h0v13.694h3.705V392.749Z" transform="translate(10178.819 1025.259)" fill="#7b7569"/>
      <path id="Path_136" data-name="Path 136" d="M390.123,392.749v-2.1a1.85,1.85,0,0,0-1.852-1.847h0a1.849,1.849,0,0,0-1.848,1.851v2.1h0v13.694h3.707V392.749Z" transform="translate(10140.44 1025.259)" fill="#7b7569"/>
      <path id="Path_138" data-name="Path 138" d="M306.527,505.436h0a1.849,1.849,0,0,0-1.847,1.851v2.1h-.006v13.693h3.705V507.283A1.848,1.848,0,0,0,306.527,505.436Z" transform="translate(10165.372 989.685)" fill="#7b7569"/>
      <path id="Path_139" data-name="Path 139" d="M344.834,505.436h0a1.85,1.85,0,0,0-1.848,1.851v2.1h-.006v13.693h3.705V507.283A1.849,1.849,0,0,0,344.834,505.436Z" transform="translate(10153.688 989.685)" fill="#7b7569"/>
      <path id="Path_140" data-name="Path 140" d="M259.837,471.567a68.164,68.164,0,0,1-32.353-45.835h-3.777a71.863,71.863,0,0,0,35.516,49.75A18.448,18.448,0,0,1,259.837,471.567Z" transform="translate(10190.066 1013.994)" fill="#7b7569"/>
      <path id="Path_141" data-name="Path 141" d="M407.969,425.732a68.146,68.146,0,0,1-31.016,45.018,18.346,18.346,0,0,1,.788,3.826,71.938,71.938,0,0,0,33.983-48.844Z" transform="translate(10143.328 1013.994)" fill="#7b7569"/>
      <path id="Path_142" data-name="Path 142" d="M345.681,313.306a71.838,71.838,0,0,0-70.053-.521,23.288,23.288,0,0,1,1.077,3.646,67.752,67.752,0,0,1,33.486-8.8v0a67.834,67.834,0,0,1,34.5,9.416A23.315,23.315,0,0,1,345.681,313.306Z" transform="translate(10174.23 1051.144)" fill="#7b7569"/>
    </g>
    <rect id="Rectangle_96" data-name="Rectangle 96" width="179" height="158" transform="translate(10395 1355)" fill="none"/>
  </g>
</svg>
