<svg xmlns="http://www.w3.org/2000/svg" xmlns:xlink="http://www.w3.org/1999/xlink" width="354" height="146" viewBox="0 0 354 146">
  <defs>
    <clipPath id="clip-path">
      <rect id="Rectangle_368" data-name="Rectangle 368" width="354" height="146" transform="translate(5504 9326)" fill="none"/>
    </clipPath>
  </defs>
  <g id="viewpoint-chronic-2-crisis-logo" transform="translate(-5504 -9326)" clip-path="url(#clip-path)">
    <g id="Group_468" data-name="Group 468">
      <g id="Group_466" data-name="Group 466" transform="translate(5682.664 9345.242)">
        <g id="Group_457" data-name="Group 457" transform="translate(0 0)">
          <path id="Path_12712" data-name="Path 12712" d="M857.61,250.184V222.429c0-7.008,4.791-11.873,11.873-11.873s11.873,4.865,11.873,11.873v5.865h-7.437v-5.865c0-2.932-1.789-4.72-4.364-4.72s-4.363,1.789-4.363,4.72v27.754c0,2.932,1.787,4.72,4.363,4.72s4.364-1.789,4.364-4.72v-7.153h7.438v7.153c0,7.01-4.792,11.873-11.873,11.873S857.61,257.194,857.61,250.184Z" transform="translate(-857.61 -210.556)" fill="#a6a8ab"/>
          <path id="Path_12713" data-name="Path 12713" d="M872.283,261.014V210.943h7.582v21.1h9.014v-21.1h7.582v50.071h-7.582V239.2h-9.014v21.817Z" transform="translate(-845.142 -210.227)" fill="#a6a8ab"/>
          <path id="Path_12714" data-name="Path 12714" d="M904.685,261.014l-5.506-20.674h-3.934v20.674H887.66V210.943h11.875c7.225,0,11.873,4.72,11.873,11.945v5.507c0,4.65-1.931,8.227-5.222,10.231l6.367,22.389Zm-9.441-27.827h3.934a4.252,4.252,0,0,0,4.648-4.648v-5.793c0-2.934-1.717-4.65-4.648-4.65h-3.934Z" transform="translate(-832.077 -210.227)" fill="#a6a8ab"/>
          <path id="Path_12715" data-name="Path 12715" d="M902.28,249.969V222.644c0-7.223,4.863-12.088,12.16-12.088s12.16,4.865,12.16,12.088v27.325c0,7.225-4.865,12.088-12.16,12.088S902.28,257.194,902.28,249.969Zm16.738,0V222.644c0-3.146-1.789-4.935-4.578-4.935s-4.578,1.789-4.578,4.935v27.325c0,3.146,1.787,4.935,4.578,4.935S919.018,253.115,919.018,249.969Z" transform="translate(-819.654 -210.556)" fill="#a6a8ab"/>
          <path id="Path_12716" data-name="Path 12716" d="M917.525,210.943h8.37l9.655,33.618V210.943h7.439v50.071h-8.013l-10.012-32.046v32.046h-7.439Z" transform="translate(-806.701 -210.227)" fill="#a6a8ab"/>
          <path id="Path_12717" data-name="Path 12717" d="M933.587,210.943h7.582v50.071h-7.582Z" transform="translate(-793.053 -210.227)" fill="#a6a8ab"/>
          <path id="Path_12718" data-name="Path 12718" d="M939.77,250.184V222.429c0-7.008,4.793-11.873,11.873-11.873s11.875,4.865,11.875,11.873v5.865h-7.44v-5.865c0-2.932-1.789-4.72-4.363-4.72s-4.363,1.789-4.363,4.72v27.754c0,2.932,1.789,4.72,4.363,4.72s4.363-1.789,4.363-4.72v-7.153h7.44v7.153c0,7.01-4.793,11.873-11.875,11.873S939.77,257.194,939.77,250.184Z" transform="translate(-787.8 -210.556)" fill="#a6a8ab"/>
        </g>
        <g id="Group_458" data-name="Group 458" transform="translate(0.629 54.935)">
          <path id="Path_12719" data-name="Path 12719" d="M867.182,284.908h15.384v7.325H857.95v-6.74L869.305,267.4c4.249-6.74,5.494-10.255,5.494-14.211,0-3.59-1.685-5.568-4.687-5.568s-4.689,1.977-4.689,5.568v3H857.95v-2.418c0-8.351,4.543-13.479,12.234-13.479s12.382,4.761,12.382,12.672c0,5.568-1.685,10.11-6.886,18.388Z" transform="translate(-857.95 -240.222)" fill="#a6a8ab"/>
          <path id="Path_12720" data-name="Path 12720" d="M879.417,280.84V252.416c0-7.179,4.909-12.16,12.162-12.16s12.16,4.981,12.16,12.16v6.008H896.12v-6.008c0-3-1.831-4.835-4.469-4.835s-4.469,1.833-4.469,4.835V280.84c0,3,1.833,4.835,4.469,4.835s4.469-1.831,4.469-4.835v-7.327h7.619v7.327c0,7.179-4.907,12.16-12.16,12.16S879.417,288.018,879.417,280.84Z" transform="translate(-839.71 -240.256)" fill="#a6a8ab"/>
          <path id="Path_12721" data-name="Path 12721" d="M912.175,291.931l-5.64-21.17h-4.03v21.17h-7.763V240.652H906.9c7.4,0,12.16,4.835,12.16,12.234v5.642c0,4.761-1.977,8.423-5.347,10.475l6.52,22.929Zm-9.67-28.5h4.03c3,0,4.761-1.757,4.761-4.761V252.74c0-3-1.759-4.761-4.761-4.761h-4.03Z" transform="translate(-826.688 -239.92)" fill="#a6a8ab"/>
          <path id="Path_12722" data-name="Path 12722" d="M910.517,240.652h7.765v51.279h-7.765Z" transform="translate(-813.284 -239.92)" fill="#a6a8ab"/>
          <path id="Path_12723" data-name="Path 12723" d="M916.775,280.4v-1.831l7.473-.806v1.905c0,3.736,1.9,6.008,4.981,6.008a4.6,4.6,0,0,0,4.981-4.907c0-3.224-1.319-5.569-7.107-11.063-7.691-7.253-9.888-11.209-9.888-16.849,0-7.619,4.395-12.6,11.794-12.6s11.794,4.981,11.794,12.672v1.319l-7.471.806v-1.465c0-3.956-1.539-6.008-4.249-6.008s-4.249,1.687-4.249,4.909,1.611,5.568,7.1,11.061c7.471,7.473,9.89,11.207,9.89,16.849,0,7.325-5.127,12.6-12.526,12.6S916.775,287.724,916.775,280.4Z" transform="translate(-807.967 -240.256)" fill="#a6a8ab"/>
          <path id="Path_12724" data-name="Path 12724" d="M932.364,240.652h7.765v51.279h-7.765Z" transform="translate(-794.721 -239.92)" fill="#a6a8ab"/>
          <path id="Path_12725" data-name="Path 12725" d="M938.622,280.4v-1.831l7.471-.806v1.905c0,3.736,1.905,6.008,4.981,6.008a4.6,4.6,0,0,0,4.981-4.907c0-3.224-1.317-5.569-7.1-11.063-7.693-7.253-9.89-11.209-9.89-16.849,0-7.619,4.395-12.6,11.794-12.6s11.8,4.981,11.8,12.672v1.319l-7.473.806v-1.465c0-3.956-1.537-6.008-4.249-6.008s-4.249,1.687-4.249,4.909,1.613,5.568,7.106,11.061c7.471,7.473,9.888,11.207,9.888,16.849,0,7.325-5.127,12.6-12.526,12.6S938.622,287.724,938.622,280.4Z" transform="translate(-789.404 -240.256)" fill="#a6a8ab"/>
        </g>
      </g>
      <g id="Group_467" data-name="Group 467" transform="translate(5504.471 9326.03)">
        <path id="Path_12726" data-name="Path 12726" d="M942.907,131.6v20.872H922.035V131.6Z" transform="translate(-817.676 -110.728)" fill="#fff" fill-rule="evenodd"/>
        <path id="Path_12727" data-name="Path 12727" d="M942.907,142.884v20.872H922.035V142.884Z" transform="translate(-817.676 -101.14)" fill="#d0e7d2" fill-rule="evenodd"/>
        <path id="Path_12728" data-name="Path 12728" d="M942.907,154.168V175.04H922.035V154.168Z" transform="translate(-817.676 -91.553)" fill="#ffce6d" fill-rule="evenodd"/>
        <path id="Path_12729" data-name="Path 12729" d="M942.907,165.452v20.872H922.035V165.452Z" transform="translate(-817.676 -81.965)" fill="#fff0c7" fill-rule="evenodd"/>
        <path id="Path_12730" data-name="Path 12730" d="M942.907,176.736v20.872H922.035V176.736Z" transform="translate(-817.676 -72.377)" fill="#fff" fill-rule="evenodd"/>
        <path id="Path_12731" data-name="Path 12731" d="M931.623,131.6v20.872H910.751V131.6Z" transform="translate(-827.264 -110.728)" fill="#d0e7d2" fill-rule="evenodd"/>
        <path id="Path_12732" data-name="Path 12732" d="M931.623,142.884v20.872H910.751V142.884Z" transform="translate(-827.264 -101.14)" fill="#6bbf6c" fill-rule="evenodd"/>
        <path id="Path_12733" data-name="Path 12733" d="M931.623,154.168V175.04H910.751V154.168Z" transform="translate(-827.264 -91.553)" fill="#f8a31d" fill-rule="evenodd"/>
        <path id="Path_12734" data-name="Path 12734" d="M931.623,165.452v20.872H910.751V165.452Z" transform="translate(-827.264 -81.965)" fill="#ffce6d" fill-rule="evenodd"/>
        <path id="Path_12735" data-name="Path 12735" d="M931.623,176.736v20.872H910.751V176.736Z" transform="translate(-827.264 -72.377)" fill="#fff0c7" fill-rule="evenodd"/>
        <path id="Path_12736" data-name="Path 12736" d="M920.339,131.6v20.872H899.467V131.6Z" transform="translate(-836.852 -110.728)" fill="#6bbf6c" fill-rule="evenodd"/>
        <path id="Path_12737" data-name="Path 12737" d="M920.339,142.885v20.872H899.467V142.884Z" transform="translate(-836.852 -101.141)" fill="#048242" fill-rule="evenodd"/>
        <path id="Path_12738" data-name="Path 12738" d="M920.339,165.452v20.872H899.467V165.452Z" transform="translate(-836.851 -81.965)" fill="#c21e66" fill-rule="evenodd"/>
        <path id="Path_12739" data-name="Path 12739" d="M920.339,176.736v20.872H899.467V176.736Z" transform="translate(-836.852 -72.377)" fill="#f1799a" fill-rule="evenodd"/>
        <path id="Path_12740" data-name="Path 12740" d="M909.055,131.6v20.872H888.183V131.6Z" transform="translate(-846.439 -110.728)" fill="#cce1f4" fill-rule="evenodd"/>
        <path id="Path_12741" data-name="Path 12741" d="M909.055,142.885v20.872H888.183V142.884Z" transform="translate(-846.439 -101.141)" fill="#6c94cb" fill-rule="evenodd"/>
        <path id="Path_12742" data-name="Path 12742" d="M909.055,154.168V175.04H888.183V154.168Z" transform="translate(-846.439 -91.553)" fill="#2b4e98" fill-rule="evenodd"/>
        <path id="Path_12743" data-name="Path 12743" d="M909.055,165.452v20.872H888.183V165.452Z" transform="translate(-846.439 -81.965)" fill="#f1799a" fill-rule="evenodd"/>
        <path id="Path_12744" data-name="Path 12744" d="M909.055,176.736v20.872H888.183V176.737Z" transform="translate(-846.439 -72.377)" fill="#fadbda" fill-rule="evenodd"/>
        <path id="Path_12745" data-name="Path 12745" d="M897.771,131.6v20.872H876.9V131.6Z" transform="translate(-856.027 -110.728)" fill="#fff" fill-rule="evenodd"/>
        <path id="Path_12746" data-name="Path 12746" d="M897.771,142.884v20.872H876.9V142.884Z" transform="translate(-856.027 -101.141)" fill="#cce1f4" fill-rule="evenodd"/>
        <path id="Path_12747" data-name="Path 12747" d="M897.771,154.168V175.04H876.9V154.168Z" transform="translate(-856.027 -91.553)" fill="#6c94cb" fill-rule="evenodd"/>
        <path id="Path_12748" data-name="Path 12748" d="M897.771,165.452v20.872H876.9V165.452Z" transform="translate(-856.027 -81.965)" fill="#fadbda" fill-rule="evenodd"/>
        <path id="Path_12749" data-name="Path 12749" d="M897.771,176.736v20.872H876.9V176.737Z" transform="translate(-856.027 -72.377)" fill="#fff" fill-rule="evenodd"/>
        <path id="Path_12750" data-name="Path 12750" d="M954.191,154.168V175.04H933.319V154.168Z" transform="translate(-808.088 -91.553)" fill="#fff0c7" fill-rule="evenodd"/>
        <path id="Path_12751" data-name="Path 12751" d="M920.339,188.02v20.872H899.467V188.02Z" transform="translate(-836.852 -62.789)" fill="#fadbda" fill-rule="evenodd"/>
        <path id="Path_12752" data-name="Path 12752" d="M886.487,154.168V175.04H865.615V154.168Z" transform="translate(-865.615 -91.553)" fill="#cce1f4" fill-rule="evenodd"/>
        <path id="Path_12753" data-name="Path 12753" d="M920.339,120.316v20.872H899.467V120.316Z" transform="translate(-836.852 -120.316)" fill="#d0e7d2" fill-rule="evenodd"/>
      </g>
    </g>
  </g>
</svg>
